<svg width="177" height="268" viewBox="0 0 177 268" fill="none" xmlns="http://www.w3.org/2000/svg">
<path d="M-51.3842 73.278L-46.9728 69.2816L-27.2584 75.0087L-22.0936 71.9022L1.55715 78.9614L6.96759 75.855L18.1378 81.0142L13.4208 81.0743L7.56813 79.4091L3.26053 84.2954L-20.2811 77.2362L-20.3084 77.2635L-24.8453 82.1225L-44.2704 76.4227L-47.3659 80.8122L-69.3079 74.6593C-69.7992 74.6593 -70.0285 74.0478 -69.6573 73.7257L-67.2332 71.6129C-66.9985 71.4054 -66.9876 71.0396 -67.2224 70.8267L-69.7392 68.4736C-70.0941 68.1461 -69.8593 67.5564 -69.3788 67.5564L-51.3842 73.278Z" fill="black"/>
<path d="M-46.023 84.2955L-43.1841 78.5575L-23.8736 84.9234L-20.0028 78.7049L4.5816 86.1681L8.39236 81.593L18.356 81.5767L18.4489 84.0335L8.99836 85.8078L4.48334 92.8343L-18.9764 85.8297L-23.4259 93.0472L-41.5134 87.3474L-44.7946 93.0472L-66.5509 86.7851C-67.0423 86.7851 -67.2716 86.1736 -66.9003 85.8515L-64.4054 83.2582C-64.1706 83.0507 -64.1597 82.685 -64.3944 82.472L-66.9877 78.6012C-67.3426 78.2736 -67.1078 77.684 -66.6274 77.684L-46.023 84.2955Z" fill="black"/>
<path d="M8.47982 213.278H-14.7069V301.946H31.9996C36.8368 301.946 40.7567 298.026 40.7567 293.189V286.043C40.7567 280.987 39.6321 275.991 37.4646 271.422L8.47982 213.278Z" fill="black"/>
<path d="M-64.045 298.425C-64.045 298.425 -55.9321 293.063 -52.4762 290.792C-48.054 287.877 -46.7109 284.072 -46.023 280.266L-13.7789 100.991H61.219L60.3455 92.5831H102.903L108.45 127.027C109.716 134.884 103.651 142.003 95.6907 142.003H43.7594C36.5746 142.003 30.307 146.878 28.5381 153.839L-8.84891 302.121H-63.0732C-65.1424 302.126 -65.4754 299.205 -64.045 298.425Z" fill="#FDB024"/>
<path d="M10.3688 104.108H29.1388V77.2745H23.4991L10.3688 104.108Z" fill="#EC8C92"/>
<path d="M32.8949 75.5767V91.9117C32.8949 93.2111 31.8412 94.2702 30.5364 94.2702C24.0941 94.2702 19.1478 89.0618 19.0877 80.867L18.9403 80.7688L32.8949 75.5767Z" fill="#F2BDBA"/>
<path d="M67.2234 98.4018L71.689 126.183L70.6109 126.356L66.1453 98.5751L67.2234 98.4018Z" fill="black"/>
<path d="M15.4789 74.5009L30.6892 63.014C31.5955 62.337 32.8894 62.9813 32.8894 64.1169V75.5819L18.9348 80.7685L15.659 78.6284C14.7964 78.066 14.2942 77.0451 14.5016 76.0351C14.6272 75.4454 14.9548 74.894 15.4789 74.5009Z" fill="#6784CE"/>
<path d="M19.0877 80.8669L32.8949 77.2254V73.3382L18.1377 80.2445L19.0877 80.8669Z" fill="black"/>
<path d="M2.86195 100.991H61.2191L60.3511 92.5831H67.2792L68.5623 100.991L6.03942 140.174L2.86195 100.991Z" fill="#6784CE"/>
<path d="M4.60341 122.469L2.86181 100.991H38.873L4.60341 122.469Z" fill="white"/>
<path d="M56.2563 100.745L66.4984 106.123C70.8333 108.399 76.1891 106.603 78.2747 102.17L83.2374 91.6331L59.8541 83.6185C57.0698 82.6631 54.1598 84.6776 54.0616 87.6149L53.7777 96.4867C53.7231 98.2665 54.6839 99.9207 56.2563 100.745Z" fill="#EC8C92"/>
<path d="M62.1799 73.999V88.0847L29.9686 82.2702C29.3898 82.1447 28.9804 81.6315 28.9804 81.0364C28.9804 80.4467 29.3898 79.9335 29.9686 79.8025L62.1799 73.999Z" fill="#FDB024"/>
<path d="M67.2246 100.772C68.7587 100.871 72.5804 101.127 72.8916 98.3648C75.2119 101.46 82.8662 102.028 83.6305 98.403C85.2957 101.362 92.3167 102.661 94.9646 98.3648C98.3713 100.925 101.625 100.92 103.946 100.772C107.167 100.565 109.787 98.1573 109.787 94.9307V77.9679C109.787 67.1853 101.047 62.9541 90.2639 62.9541H73.5085C65.0135 62.9541 58.1235 65.3345 58.1235 73.8295V91.6714C58.129 96.6996 62.2072 100.456 67.2246 100.772Z" fill="#F2BDBA"/>
<path d="M111.736 95.5532C115.312 96.0937 122.819 97.0055 122.819 97.0055V64.9306C122.819 64.9306 115.307 65.755 111.736 66.3828C106.566 67.3001 102.226 70.6413 102.226 75.8934V86.0372C102.226 91.2948 106.544 94.7671 111.736 95.5532Z" fill="#FDB024"/>
<path d="M165.224 47.9076L165.491 113.4L133.023 106.145C124.697 104.294 118.768 96.9126 118.768 88.3793V72.896C118.768 64.3627 124.692 56.9814 133.023 55.1306L165.224 47.9076Z" fill="#6784CE"/>
<path d="M165.764 113.417C159.875 113.417 155.101 98.7436 155.101 80.6432C155.101 62.5428 159.875 47.8695 165.764 47.8695C171.653 47.8695 176.427 62.5428 176.427 80.6432C176.427 98.7436 171.653 113.417 165.764 113.417Z" fill="#FDB024"/>
<path d="M13.8304 124.625L15.9541 124.019C18.5583 123.276 20.0652 120.563 19.3281 117.959L17.1334 110.255C16.1398 106.772 12.5146 104.758 9.03142 105.751L8.4964 105.904C5.89219 106.647 4.3799 109.36 5.1224 111.964L7.77027 121.251C8.51277 123.855 11.2262 125.368 13.8304 124.625Z" fill="#EC8C92"/>
<path d="M4.71275 141.293H-58.7164C-63.3242 141.293 -67.064 137.554 -67.064 132.946V119.248C-67.064 106.445 -56.6854 96.0719 -43.8882 96.0719H-4.26822C6.50348 96.0719 13.9394 102.809 12.4326 111.162C14.8512 113.401 14.6983 118.795 12.4708 121.442C14.2724 124.483 13.6009 130.025 10.6964 131.39C12.1814 134.349 10.3143 141.293 4.71275 141.293Z" fill="#F2BDBA"/>
<path d="M165.939 108.667C161.51 108.667 157.919 96.1203 157.919 80.6431C157.919 65.1659 161.51 52.6192 165.939 52.6192C170.368 52.6192 173.959 65.1659 173.959 80.6431C173.959 96.1203 170.368 108.667 165.939 108.667Z" fill="black"/>
<path d="M23.3189 83.3347C23.5591 83.0453 23.832 82.8269 24.1432 82.6686C24.8912 82.281 25.7975 82.2755 26.7474 82.2701H26.8293L26.8184 81.1782H26.742C25.7047 81.1891 24.6291 81.1945 23.6464 81.7023C23.2042 81.9261 22.8166 82.2428 22.4835 82.6413L23.3189 83.3347Z" fill="black"/>
<path d="M29.6903 88.9199C29.8541 88.9199 30.0179 88.9199 30.1762 88.9199H30.4546L30.4492 87.828H30.1707C28.8058 87.8389 27.2608 87.8498 26.5237 87.0091L25.6993 87.7297C26.6602 88.8216 28.2217 88.9199 29.6903 88.9199Z" fill="black"/>
<path d="M15.7465 100.445H33.3044V101.537H15.7465V100.445Z" fill="black"/>
<path d="M17.3242 105.091H25.6392V106.183H17.3242V105.091Z" fill="black"/>
<path d="M-3.48218 6.74811C-1.47307 6.74811 0.164795 5.11025 0.164795 3.10114H-0.927116C-0.927116 4.5097 -2.07362 5.6562 -3.48218 5.6562C-4.89075 5.6562 -6.03725 4.5097 -6.03725 3.10114H-7.12916C-7.12916 5.11025 -5.49676 6.74811 -3.48218 6.74811Z" fill="black"/>
<path d="M166.102 78.4647C166.102 85.6168 165.278 91.4148 167.325 91.4148C169.373 91.4148 171.032 85.6168 171.032 78.4647C171.032 71.3127 169.373 65.5147 167.325 65.5147C165.278 65.5092 166.102 71.3127 166.102 78.4647Z" fill="#12D1A8"/>
<path d="M10.6306 109.732L11.2312 108.82C7.52962 106.374 3.57143 103.999 3.53321 103.972L2.97089 104.905C3.01457 104.938 6.94543 107.302 10.6306 109.732Z" fill="black"/>
<path d="M10.0847 119.941L10.658 119.013C6.83627 116.665 2.60511 114.181 2.56143 114.159L2.01001 115.098C2.04823 115.12 6.27391 117.599 10.0847 119.941Z" fill="black"/>
<path d="M8.61619 130.369L9.15125 129.419C6.19217 127.743 2.57246 125.794 2.5397 125.777L2.02107 126.738C2.05928 126.76 5.66803 128.704 8.61619 130.369Z" fill="black"/>
<path d="M72.1489 97.3821L73.0934 96.8416C72.4437 95.7061 72.0997 94.4121 72.0997 93.1018V84.6013H71.0078V93.1018C71.0133 94.5978 71.4064 96.0828 72.1489 97.3821Z" fill="black"/>
<path d="M82.7025 96.8141L83.718 96.4156C83.3795 95.5421 83.2048 94.6194 83.2048 93.6749V84.5356H82.1129V93.6749C82.1129 94.7614 82.3149 95.815 82.7025 96.8141Z" fill="black"/>
<path d="M94.2165 96.989L95.1829 96.4758C94.6096 95.3948 94.3093 94.1774 94.3093 92.949V84.8743H93.2174V92.949C93.212 94.3575 93.5559 95.7552 94.2165 96.989Z" fill="black"/>
</svg>
