<svg width="380" height="375" viewBox="0 0 380 375" fill="none" xmlns="http://www.w3.org/2000/svg">
<path d="M111.318 316.135C111.318 316.135 121.96 335.155 139.998 330.234C140.677 330.048 141.397 330.188 141.975 330.581C147.037 334.012 156.587 336.785 169.549 331.477C170.248 331.19 171.048 331.26 171.677 331.678C182.037 338.546 196.589 340.916 209.444 330.606C209.832 330.294 210.355 330.214 210.818 330.4C217.651 333.147 221.721 332.981 230.149 329.751C231.614 329.187 232.635 328.971 233.289 329.026C235.347 329.197 239.669 332.246 248.283 329.861C245.305 338.647 222.491 345.51 222.491 345.51L147.772 351.492L108.233 335.713L111.318 316.135Z" fill="#6784CE"/>
<path d="M45.8113 229.33C22.6558 229.999 20.2708 245.034 20.2658 248.722C20.2557 252.848 21.7602 256.606 25.2873 257.577C29.5894 258.765 31.597 254.589 29.3479 253.059C25.9414 250.75 26.5553 248.676 28.2459 247.685C30.6359 246.292 42.6867 247.273 37.9469 266.956C36.2563 273.986 33.3228 274.957 32.402 278.046C32.7291 286.444 36.7795 285.815 45.5144 285.815C61.1124 285.815 72.348 272.481 72.348 256.883C72.338 241.29 61.4043 228.882 45.8113 229.33Z" fill="#6784CE"/>
<path d="M341.192 320.523C350.083 302.233 343.306 281.447 327.818 268.27C317.785 259.736 321.977 250.483 326.827 249.658C329.66 249.175 333.061 253.2 329.534 256.335C328.563 257.195 329.791 259.505 333.413 257.804C336.035 256.571 339.834 249.029 333.504 243.112C327.567 237.557 319.838 236.576 311.677 239.524C297.357 244.702 292.924 258.478 295.374 275.52C297.181 288.099 300.426 339.432 300.426 339.432L326.988 338.979C333.318 333.741 337.897 327.306 341.192 320.523Z" fill="#6784CE"/>
<path d="M325.619 288.033C327.964 292.079 333.851 290.645 332.226 286.821C329.63 280.692 335.154 279.092 337.142 280.441C342.782 284.26 345.303 297.936 329.584 304.185C321.659 307.335 304.29 307.581 285.251 303.893C277.286 313.976 283.998 361.49 330.968 360.73C380.393 359.935 386.698 306.167 374.884 283.772C367.538 269.849 347.753 261.054 333.061 265.738C325.307 268.204 319.672 277.769 325.619 288.033Z" fill="#6784CE"/>
<path d="M238.23 318.611C238.95 318.415 239.503 318.128 239.71 317.715C240.324 316.472 238.019 315.335 237.023 313.031C235.856 310.344 236.892 307.531 238.839 306.54C241.466 305.202 245.748 306.158 248.138 309.212C250.679 312.452 258.347 327.321 233.476 340.161C253.255 346.461 267.806 323.436 268.093 317.449C269.039 297.8 255.106 289.428 243.383 289.87C232.454 290.283 228.097 298.6 228.449 307.013C228.731 313.801 234.658 319.597 238.23 318.611Z" fill="#6784CE"/>
<path d="M89.4756 344.946C90.7788 344.946 92.4242 344.936 94.301 344.901L100.51 356.011C121.396 369.325 136.219 377.793 173.071 363.81C194.742 355.588 200.035 352.766 211.532 351.759C216.871 360.162 229.349 365.501 244.766 367.176L267.338 356.076C267.338 356.076 272.833 330.41 267.444 313.373C256.983 336.101 240.026 336.916 231.377 330.118C230.778 329.645 229.923 329.675 229.38 330.214C215.306 344.111 204.805 339.376 199.904 336.473C199.286 336.106 198.521 336.101 197.882 336.433C177.529 347.1 161.312 338.602 156.381 335.401C155.511 334.833 154.368 334.969 153.634 335.703C151.807 337.52 147.802 340.504 140.984 340.856C135.399 341.148 125.899 337.137 120.365 328.609C107.635 308.99 98.8093 279.203 105.783 262.096C108.319 255.877 113.371 253.608 117.431 253.688C122.654 253.794 124.954 257.799 120.878 258.71C118.473 259.248 118.76 263.56 123.575 263.49C129.472 263.404 133.165 257.572 133.165 252.757C133.165 237.622 120.214 228.882 100.475 228.882C77.4501 228.882 58.335 250.191 58.335 273.563C58.3299 296.93 66.456 344.946 89.4756 344.946Z" fill="#6784CE"/>
<path d="M123.505 370.789C136.371 375 151.013 375.372 173.695 367.201C189.524 361.5 198.088 353.943 211.538 351.759C214.174 355.905 218.547 359.301 224.152 361.888L253.431 357.148C253.431 357.148 268.923 332.624 259.333 341.238C250.674 349.012 239.061 344.327 233.601 342.511C232.751 342.229 231.82 342.38 231.091 342.903C221.088 350.078 211.538 351.764 202.365 347.809C201.233 347.321 199.98 347.215 199.049 348.031C187.582 358.054 175.713 353.807 167.3 348.514C166.278 347.87 164.965 348.026 164.07 348.831C147.35 363.905 127.651 352.765 122.539 347.135C121.915 346.451 120.979 346.154 120.068 346.325C104.309 349.218 97.2095 337.746 97.2095 337.746C91.6043 350.416 111.077 363.447 123.505 370.789Z" fill="#6784CE"/>
<path d="M246.578 347.11C238.004 352.987 222.446 357.299 216.212 357.269C230.471 371.886 268.998 373.536 289.512 368.202C318.213 360.736 326.776 343.507 326.761 324.689C326.716 272.954 278.558 269.341 274.78 255.575C273.039 249.225 275.846 246.583 278.392 245.32C281.316 243.871 284.833 245.507 284.888 246.9C284.959 248.802 281.522 248.807 283.072 251.952C283.862 253.562 286.066 253.799 288.415 252.807C292.245 251.192 294.338 247.046 293.679 242.946C291.792 231.172 282.267 223.201 269.084 223.201C254.1 223.201 240.61 233.441 237.194 248.048C232.68 267.339 252.827 281.417 261.109 300.286C270.89 323.698 256.233 340.488 246.578 347.11Z" fill="#6784CE"/>
<path d="M68.142 343.497C104.792 361.254 114.78 380.952 152.386 372.867C108.823 369.822 97.4914 332.805 103.409 316.92C105.572 311.103 110.81 306.791 116.606 305.745C119.037 305.307 122.851 305.347 124.738 307.964C125.583 309.141 125.065 310.545 123.56 311.285C122.282 311.914 120.999 312.638 121.095 314.681C121.236 317.725 126.519 319.114 130.237 315.068C133.704 311.3 131.701 301.367 126.116 296.678C118.961 290.675 108.053 289.176 97.8335 290.353C72.5044 293.266 53.7566 311.737 50.3301 338.561C55.1956 339.21 62.2802 340.659 68.142 343.497Z" fill="#6784CE"/>
<path d="M29.7203 328.493C33.9217 325.831 33.5191 321.494 33.1921 320.346C32.3317 317.322 28.1353 317.413 27.2648 320.432C27.0133 321.307 26.4095 322.032 25.217 322.339C21.1213 323.391 19.8432 313.207 25.2874 310.193C34.0424 305.347 45.8315 321.323 30.2587 338.999C46.2994 335.461 64.5139 340.574 79.2062 347.97C86.9297 339.487 92.4091 327.104 92.4091 314.414C92.4091 288.35 70.4914 267.469 47.6831 266.166C24.0094 264.813 -0.338585 280.421 0.00356455 303.853C0.355777 327.954 21.5741 333.655 29.7203 328.493Z" fill="#6784CE"/>
<path d="M199.472 146.696H152.296L153.231 150.389H200.136L199.472 146.696Z" fill="white"/>
<path d="M151.108 27.6427H85.6971C84.8618 27.6427 84.0719 27.2855 83.4731 26.6313C82.7687 25.8665 82.4165 24.7898 82.507 23.6878C82.658 21.8563 84.1121 20.4223 85.8178 20.4223H88.1978C89.1689 20.4223 90.1551 20.3368 90.789 19.6978C91.3979 19.089 91.6897 17.987 91.6847 16.3367C91.6646 11.3453 93.0382 7.42568 95.7653 4.69352C99.5239 0.919808 104.933 0.35627 107.821 0.35627C111.117 0.35627 112.656 2.56515 114.141 4.70358C115.801 7.0936 117.522 9.55909 121.834 9.55909H128.587C132.974 9.55909 135.726 11.6371 138.081 16.7241L138.147 16.87C139.525 19.8538 140.3 21.2827 142.776 21.2827H150.962C151.973 21.2827 152.824 21.6299 153.423 22.279C153.946 22.8526 154.238 23.6224 154.238 24.4527C154.233 26.0376 153.161 27.6427 151.108 27.6427ZM85.8128 21.4287C84.6304 21.4287 83.614 22.4551 83.5083 23.7684C83.4379 24.5935 83.6945 25.3885 84.2128 25.9521C84.6203 26.3949 85.1486 26.6364 85.6971 26.6364H151.108C152.562 26.6364 153.226 25.5043 153.226 24.4577C153.226 23.3809 152.527 22.2941 150.962 22.2941H142.766C139.535 22.2941 138.519 20.0903 137.226 17.2977L137.16 17.1518C134.972 12.417 132.567 10.5704 128.582 10.5704H121.829C116.994 10.5704 115.036 7.7628 113.311 5.28222C111.846 3.18403 110.583 1.36762 107.816 1.36762C105.084 1.36762 99.9768 1.89091 96.4748 5.40801C93.9439 7.94897 92.6709 11.6271 92.691 16.3417C92.696 18.2738 92.3086 19.6022 91.5036 20.4173C90.6079 21.318 89.3299 21.4387 88.1978 21.4387H85.8128V21.4287Z" fill="black"/>
<path d="M333.796 186.315H241.541C239.775 186.315 238.301 185.676 237.284 184.463C236.399 183.411 235.911 181.972 235.911 180.418C235.911 177.308 237.953 174.002 241.742 174.002H248.339C248.968 174.002 249.42 173.831 249.727 173.484C250.774 172.281 250.316 168.991 249.742 164.825C249.581 163.667 249.415 162.465 249.264 161.192L249.239 160.96C248.656 156.07 247.438 145.896 257.788 142.187C261.758 140.763 263.725 140.22 267.293 139.229C268.219 138.972 269.255 138.685 270.473 138.343C273.673 137.443 276.028 137.417 278.106 138.268C280.642 139.304 282.689 141.684 284.38 145.544C286.594 150.605 288.41 152.165 291.339 151.501C311.299 146.967 314.484 155.139 317.569 163.043C317.76 163.526 317.946 164.01 318.137 164.493C320.12 169.429 322.52 173.997 326.651 173.997H333.604C337.549 173.997 339.617 177.147 339.617 180.262C339.607 183.18 337.791 186.315 333.796 186.315ZM241.747 175.009C238.577 175.009 236.922 177.731 236.922 180.418C236.922 181.736 237.324 182.943 238.059 183.819C238.879 184.795 240.087 185.308 241.546 185.308H333.801C337.101 185.308 338.606 182.697 338.606 180.267C338.606 177.736 337.041 175.009 333.599 175.009H326.646C321.916 175.009 319.31 170.138 317.196 164.87C317.005 164.387 316.814 163.899 316.623 163.416C313.558 155.561 310.665 148.145 291.555 152.487C287.58 153.393 285.507 150.656 283.454 145.951C280.153 138.404 275.987 137.84 270.739 139.314C269.522 139.657 268.485 139.943 267.559 140.2C263.896 141.216 262.06 141.725 258.125 143.133C248.53 146.575 249.682 156.211 250.236 160.84L250.266 161.071C250.417 162.334 250.583 163.532 250.744 164.684C251.378 169.278 251.841 172.593 250.492 174.138C249.994 174.712 249.269 175.004 248.344 175.004H241.747V175.009Z" fill="black"/>
<path d="M130.04 195.683H47.0237C45.8765 195.683 44.7646 195.2 43.9796 194.365C43.1846 193.515 42.7871 192.403 42.8626 191.235C43.0035 189.052 44.8853 187.341 47.1495 187.341H51.2352C52.8956 187.341 54.2441 185.992 54.2441 184.332V177.675C54.2441 173.484 57.1021 169.906 61.1928 168.981L72.7202 166.379C76.9669 165.418 81.3242 167.104 83.825 170.666C85.3797 172.885 87.9257 174.208 90.6378 174.208H102.341C106.985 174.208 111.172 177.142 112.762 181.499C114.035 184.991 117.386 187.341 121.104 187.341H129.92C132.184 187.341 134.066 189.052 134.207 191.235C134.282 192.403 133.884 193.515 133.089 194.365C132.3 195.2 131.188 195.683 130.04 195.683ZM47.1495 188.347C45.4136 188.347 43.9746 189.645 43.8689 191.301C43.8136 192.186 44.1105 193.032 44.7142 193.676C45.318 194.32 46.1382 194.677 47.0237 194.677H130.04C130.926 194.677 131.746 194.32 132.35 193.676C132.954 193.032 133.256 192.186 133.195 191.301C133.089 189.645 131.645 188.347 129.915 188.347H121.099C116.958 188.347 113.225 185.736 111.811 181.846C110.367 177.881 106.558 175.215 102.336 175.215H90.6327C87.5936 175.215 84.7407 173.73 82.9947 171.245C80.7305 168.014 76.7807 166.49 72.9365 167.36L61.4091 169.962C57.7813 170.782 55.2454 173.952 55.2454 177.675V184.332C55.2454 186.546 53.4441 188.347 51.2302 188.347H47.1495Z" fill="black"/>
<path d="M88.9575 333.474L88.0266 333.087C90.5625 327.034 91.901 320.578 91.901 314.414C91.901 302.238 87.0455 290.499 78.2351 281.357C69.8474 272.657 58.7024 267.303 47.653 266.669L47.7133 265.663C59.0093 266.312 70.4009 271.777 78.9597 280.657C87.9562 289.991 92.9073 301.976 92.9073 314.414C92.9123 320.704 91.5437 327.295 88.9575 333.474Z" fill="white"/>
<path d="M103.293 337.882C100.988 330.244 100.852 322.344 102.935 316.749C105.129 310.862 110.458 306.349 116.516 305.252L116.697 306.243C110.981 307.274 105.954 311.536 103.881 317.101C101.874 322.5 102.015 330.158 104.259 337.595L103.293 337.882Z" fill="white"/>
<path d="M121.406 294.172C115.258 290.992 106.905 289.815 97.8786 290.852C96.0672 291.058 94.2609 291.355 92.5099 291.722L92.3036 290.736C94.0848 290.358 95.9213 290.062 97.7679 289.85C106.986 288.789 115.545 290.006 121.869 293.277L121.406 294.172Z" fill="white"/>
<path d="M154.237 355.367L153.905 354.416C157.402 353.188 160.708 351.181 163.737 348.448C164.809 347.482 166.384 347.331 167.571 348.081C170.248 349.767 172.88 351.085 175.385 351.986L175.043 352.932C172.467 352.001 169.775 350.657 167.033 348.931C166.223 348.423 165.146 348.534 164.411 349.198C161.282 352.021 157.86 354.099 154.237 355.367Z" fill="white"/>
<path d="M190.843 353.47L190.521 352.519C193.368 351.553 196.126 349.917 198.722 347.648C199.693 346.803 201.057 346.692 202.566 347.346C204.72 348.272 206.924 348.896 209.122 349.188L208.992 350.184C206.702 349.877 204.403 349.233 202.169 348.272C201.369 347.925 200.232 347.668 199.386 348.408C196.689 350.758 193.811 352.463 190.843 353.47Z" fill="white"/>
<path d="M222.039 348.474L221.676 347.533C224.65 346.39 227.714 344.695 230.794 342.486C231.654 341.867 232.766 341.696 233.752 342.028C234.094 342.144 234.457 342.265 234.844 342.4C237.023 343.145 240.007 344.166 243.232 344.7L243.066 345.691C239.76 345.143 236.726 344.106 234.517 343.351C234.135 343.221 233.772 343.095 233.43 342.984C232.746 342.753 231.976 342.873 231.372 343.306C228.233 345.565 225.093 347.306 222.039 348.474Z" fill="white"/>
<path d="M132.441 354.219C127.495 352.136 123.892 349.364 122.166 347.467C121.668 346.919 120.918 346.672 120.158 346.813C117.074 347.376 114.085 347.437 111.283 346.989L111.444 345.998C114.131 346.425 117.004 346.37 119.977 345.827C121.079 345.62 122.181 345.988 122.916 346.798C124.571 348.619 128.043 351.281 132.833 353.299L132.441 354.219Z" fill="white"/>
<path d="M137.895 370.874C126.881 367.689 117.637 361.561 111.157 353.148L111.952 352.534C118.297 360.776 127.364 366.779 138.171 369.908L137.895 370.874Z" fill="white"/>
<path d="M230.668 354.884L230.366 353.923C236.786 351.9 242.442 349.334 246.296 346.692C249.204 344.7 256.42 339.069 260.681 329.786C264.923 320.543 264.913 310.681 260.646 300.477L261.577 300.09C265.954 310.565 265.959 320.699 261.597 330.209C257.235 339.724 249.843 345.49 246.869 347.528C242.93 350.219 237.179 352.831 230.668 354.884Z" fill="white"/>
<path d="M319.304 351.004L318.499 350.396C323.652 343.563 326.263 334.913 326.253 324.684C326.228 297.201 312.366 283.933 301.94 276.345L302.534 275.53C310.046 281 315.631 286.967 319.606 293.785C324.673 302.464 327.249 312.865 327.259 324.684C327.27 335.135 324.593 343.99 319.304 351.004Z" fill="white"/>
<path d="M325.182 288.285C321.71 282.298 321.76 275.953 325.317 270.881L326.143 271.46C322.822 276.199 322.787 282.147 326.052 287.782L325.182 288.285Z" fill="white"/>
<path d="M329.775 304.648L329.403 303.712C338.616 300.049 340.573 294.187 340.915 291.017C341.358 286.947 339.693 282.765 336.865 280.853C336.357 280.511 335.531 280.406 334.716 280.577C334.173 280.692 333.172 281.03 332.548 282.021L331.697 281.487C332.306 280.521 333.302 279.852 334.51 279.596C335.607 279.364 336.699 279.525 337.433 280.023C340.558 282.137 342.405 286.705 341.922 291.133C341.549 294.519 339.481 300.789 329.775 304.648Z" fill="white"/>
<path d="M60.1161 263.147L59.14 262.906C60.7602 256.355 63.8748 250.065 68.1567 244.722L68.9416 245.351C64.7503 250.579 61.6961 256.732 60.1161 263.147Z" fill="white"/>
<path d="M140.411 341.369C137.316 341.369 133.427 340.196 129.864 338.174L130.363 337.298C134 339.366 137.96 340.508 140.959 340.347C144.043 340.186 146.861 339.462 149.322 338.189L149.785 339.084C147.193 340.423 144.245 341.188 141.014 341.354C140.813 341.364 140.612 341.369 140.411 341.369Z" fill="white"/>
<path d="M169.639 341.308C166.132 340.579 162.731 339.391 159.536 337.781L159.989 336.88C163.108 338.45 166.424 339.608 169.841 340.322L169.639 341.308Z" fill="white"/>
<path d="M210.521 340.146C207.573 340.146 204.659 339.452 201.781 338.053L202.219 337.147C209.007 340.443 216.066 339.628 223.201 334.727L223.769 335.557C219.322 338.616 214.889 340.146 210.521 340.146Z" fill="white"/>
<path d="M242.477 334.36C241.365 334.36 240.253 334.264 239.146 334.073L239.317 333.082C245.531 334.169 251.961 332 257.421 326.978L258.1 327.718C253.375 332.065 247.931 334.36 242.477 334.36Z" fill="white"/>
</svg>
